<?xml version="1.0" encoding="iso-8859-1"?>
<!-- Generator: Adobe Illustrator 19.0.0, SVG Export Plug-In . SVG Version: 6.00 Build 0)  -->
<svg version="1.1" id="Layer_1" xmlns="http://www.w3.org/2000/svg" xmlns:xlink="http://www.w3.org/1999/xlink" x="0px" y="0px"
	 viewBox="0 0 512.001 512.001" style="enable-background:new 0 0 512.001 512.001;" xml:space="preserve">
<g>
	<g>
		<path d="M476.841,162.585H239.564l228.993-61.557c3.719-0.999,6.886-3.434,8.808-6.77s2.441-7.298,1.441-11.016L459.318,10.75
			c-2.081-7.741-10.034-12.326-17.785-10.251l-2.138,0.575c-0.048,0.012-0.094,0.025-0.142,0.038L327.198,31.234
			c-0.03,0.009-0.061,0.016-0.091,0.025L215.051,61.382c-0.045,0.012-0.09,0.025-0.135,0.036l-112.06,30.125
			c-0.029,0.007-0.057,0.016-0.086,0.023l-71.373,19.186c-7.742,2.081-12.331,10.044-10.251,17.785l16.481,61.308v61.868v0.454
			v245.318c0,8.015,6.5,14.515,14.515,14.515h424.698c8.015,0,14.515-6.5,14.515-14.515v-245.32v-0.454V177.1
			C491.356,169.084,484.856,162.585,476.841,162.585z M439.512,191.615l-45.582,45.582h-75.097l45.583-45.582H439.512z
			 M248.261,191.615h75.097l-45.583,45.582h-75.096L248.261,191.615z M439.788,49.919l7.215,26.84l-26.84,7.216L439.788,49.919z
			 M340.498,57.722l72.524-19.498l-32.505,56.409l-72.525,19.497L340.498,57.722z M228.327,87.875l72.522-19.497l-32.505,56.409
			l-72.524,19.495L228.327,87.875z M116.157,118.029l72.522-19.495l-32.507,56.407l-28.434,7.644H90.48L116.157,118.029z
			 M132.108,191.616h75.096l-45.581,45.582H86.526L132.108,191.616z M52.951,135.02l23.558-6.333l-17.225,29.891L52.951,135.02z
			 M76.156,206.512l-9.499,9.497v-6.944L76.156,206.512z M462.325,482.97H66.657V266.682h395.668V482.97z M462.325,237.198h-27.339
			l27.339-27.339V237.198z"/>
	</g>
</g>
<g>
	<g>
		<path d="M369.122,346.895c-1.771-33.122-28.557-59.068-60.981-59.068c-18.437,0-33.681,10.551-43.538,19.854
			c-9.754-9.309-24.953-19.854-43.763-19.854c-32.421,0-59.206,25.944-60.98,59.068c-1.068,20.003,6.631,34.192,12.516,43.125
			c8.04,12.199,27.634,30.388,43.29,43.341c35.043,28.994,44.76,28.994,48.91,28.994c4.202,0,14.039,0,48.903-28.945
			c15.539-12.901,35.031-31.076,43.139-43.405C362.499,381.06,370.193,366.858,369.122,346.895z M332.362,374.058
			c-10.439,15.877-54.149,52.542-67.751,58.759c-13.721-6.308-57.604-43.003-67.995-58.768c-5.924-8.992-8.248-16.649-7.77-25.602
			c0.935-17.418,15.284-31.589,31.991-31.589c14.367,0,27.679,15.038,31.565,20.781c2.64,3.979,7.085,6.382,11.86,6.464
			c4.742,0.105,9.3-2.211,12.074-6.098c4.202-5.882,18.105-21.147,31.803-21.147c16.71,0,31.061,14.171,31.994,31.589
			C340.62,357.5,338.367,364.922,332.362,374.058z"/>
	</g>
</g>
<g>
	<g>
		<path d="M119.34,337.54c-8.015,0-14.515,6.5-14.515,14.515v76.319c0,8.015,6.5,14.515,14.515,14.515
			c8.015,0,14.515-6.5,14.515-14.515v-76.319C133.855,344.04,127.356,337.54,119.34,337.54z"/>
	</g>
</g>
<g>
	<g>
		<path d="M133.565,305.912c-0.187-0.928-0.463-1.843-0.826-2.714c-0.363-0.885-0.814-1.727-1.335-2.51
			c-0.523-0.8-1.132-1.54-1.8-2.208c-0.668-0.668-1.408-1.277-2.208-1.8c-0.784-0.521-1.624-0.973-2.51-1.335
			c-0.872-0.363-1.785-0.653-2.714-0.826c-1.872-0.393-3.803-0.393-5.675,0c-0.914,0.173-1.829,0.463-2.714,0.826
			c-0.871,0.363-1.713,0.814-2.497,1.335c-0.798,0.523-1.539,1.132-2.206,1.8c-0.669,0.668-1.279,1.408-1.814,2.208
			c-0.523,0.782-0.974,1.624-1.337,2.51c-0.363,0.871-0.637,1.785-0.826,2.714c-0.189,0.929-0.276,1.887-0.276,2.83
			c0,0.942,0.089,1.901,0.276,2.845c0.189,0.914,0.463,1.829,0.826,2.714c0.363,0.871,0.814,1.713,1.337,2.497
			c0.536,0.798,1.145,1.539,1.814,2.206c0.668,0.668,1.408,1.279,2.206,1.814c0.784,0.509,1.626,0.958,2.497,1.321
			c0.885,0.363,1.8,0.653,2.714,0.827c0.943,0.189,1.903,0.29,2.845,0.29c0.943,0,1.903-0.102,2.83-0.29
			c0.929-0.174,1.843-0.465,2.714-0.827c0.885-0.363,1.726-0.813,2.51-1.321c0.8-0.536,1.54-1.147,2.208-1.814
			c0.668-0.668,1.277-1.408,1.8-2.206c0.521-0.784,0.973-1.626,1.335-2.497c0.363-0.885,0.637-1.8,0.826-2.714
			c0.19-0.943,0.29-1.903,0.29-2.845C133.855,307.799,133.755,306.839,133.565,305.912z"/>
	</g>
</g>
<g>
</g>
<g>
</g>
<g>
</g>
<g>
</g>
<g>
</g>
<g>
</g>
<g>
</g>
<g>
</g>
<g>
</g>
<g>
</g>
<g>
</g>
<g>
</g>
<g>
</g>
<g>
</g>
<g>
</g>
</svg>
