<?xml version="1.0" encoding="iso-8859-1"?>
<!-- Generator: Adobe Illustrator 19.0.0, SVG Export Plug-In . SVG Version: 6.00 Build 0)  -->
<svg version="1.1" id="Capa_1" xmlns="http://www.w3.org/2000/svg" xmlns:xlink="http://www.w3.org/1999/xlink" x="0px" y="0px"
	 viewBox="0 0 490 490" style="enable-background:new 0 0 490 490;" xml:space="preserve">
<g>
	<g>
		<path d="M394.35,198.3h-1v-51.2C393.25,66,327.25,0,246.15,0S99.05,66,99.05,147.1v51.2h-3.4c-21.4,0-38.8,17.4-38.8,38.8v214.1
			c0,21.4,17.4,38.8,38.8,38.8h298.7c21.4,0,38.8-17.4,38.8-38.8V237.1C433.15,215.7,415.75,198.3,394.35,198.3z M314.25,358.1
			l-64.1,64.1c-1.3,1.3-3.2,2.1-5.1,2.1s-3.7-0.8-5.1-2.1l-64.2-64.2c-8.9-8.9-13.8-20.8-13.8-33.3c0-12.6,4.9-24.4,13.8-33.4
			c8.9-8.9,20.7-13.8,33.3-13.8s24.5,4.9,33.4,13.8l2.6,2.6l2.6-2.6c8.9-8.9,20.8-13.8,33.4-13.8s24.4,4.9,33.3,13.8
			s13.8,20.8,13.8,33.4C328.05,337.3,323.15,349.2,314.25,358.1z M328.85,198.3h-165.5v-51.2c0-45.6,37.1-82.8,82.8-82.8
			c45.6,0,82.8,37.1,82.8,82.8v51.2H328.85z"/>
	</g>
</g>
<g>
</g>
<g>
</g>
<g>
</g>
<g>
</g>
<g>
</g>
<g>
</g>
<g>
</g>
<g>
</g>
<g>
</g>
<g>
</g>
<g>
</g>
<g>
</g>
<g>
</g>
<g>
</g>
<g>
</g>
</svg>
