<?xml version="1.0" encoding="iso-8859-1"?>
<!-- Generator: Adobe Illustrator 19.0.0, SVG Export Plug-In . SVG Version: 6.00 Build 0)  -->
<svg version="1.1" id="Capa_1" xmlns="http://www.w3.org/2000/svg" xmlns:xlink="http://www.w3.org/1999/xlink" x="0px" y="0px"
	 viewBox="0 0 488.568 488.568" style="enable-background:new 0 0 488.568 488.568;" xml:space="preserve">
<g>
	<g>
		<path d="M56.484,449.868c0,21.4,17.3,38.7,38.7,38.7h298.1c21.4,0,38.8-17.3,38.8-38.8v-213.7c0-21.4-17.3-38.7-38.7-38.7h-1.3
			v-47.3c0-79.9-62.6-147.6-142.5-150c-83-2.5-151.3,64.4-151.3,146.8c0,6.3,5.1,11.5,11.5,11.5h44c4.9,0,8.8-4,8.8-8.8
			c0-44.6,34.2-83.1,78.7-85.2c47.3-2.2,86.6,35.7,86.6,82.5v50.4h-165.4h-64.3h-2.9c-21.4,0-38.8,17.3-38.8,38.8V449.868z
			 M389.284,349.468v40.6l-31.8-40.6H389.284z M323.684,349.468l65.6,83.9v12.4h-24.1l-75.3-96.3H323.684z M256.084,349.468
			l75.3,96.3h-33.8l-75.3-96.3H256.084z M188.484,349.468l75.3,96.3h-33.8l-75.3-96.3H188.484z M99.284,349.468h21.6l75.3,96.3
			h-33.9l-63-80.7V349.468z M99.284,408.368l29.2,37.4h-29.2V408.368z"/>
	</g>
</g>
<g>
</g>
<g>
</g>
<g>
</g>
<g>
</g>
<g>
</g>
<g>
</g>
<g>
</g>
<g>
</g>
<g>
</g>
<g>
</g>
<g>
</g>
<g>
</g>
<g>
</g>
<g>
</g>
<g>
</g>
</svg>
